<?xml version="1.0" standalone="no"?><!DOCTYPE svg PUBLIC "-//W3C//DTD SVG 1.1//EN" "http://www.w3.org/Graphics/SVG/1.1/DTD/svg11.dtd"><svg t="1682252315490" class="icon" viewBox="0 0 1024 1024" version="1.1" xmlns="http://www.w3.org/2000/svg" p-id="4147" xmlns:xlink="http://www.w3.org/1999/xlink" width="32" height="32"><path d="M152.576 484.352h328.192v-327.68c-4.096-79.36-69.632-141.312-148.992-140.288-78.848 0.512-144.384 61.44-149.504 140.288v29.696h-29.696C74.752 192.512 15.36 257.536 15.36 335.36s59.392 142.336 137.216 148.992z m723.456 65.536H547.84v327.68c5.12 78.848 70.144 140.288 149.504 139.776 78.848 0 144.384-61.44 148.992-139.776v-26.624h29.696c77.312-6.656 137.216-71.168 137.216-148.992 0-77.824-59.392-142.336-137.216-148.992v-3.072zM11.776 698.88c-1.024 79.872 60.928 146.944 140.8 152.064a143.915 143.915 0 0 0 29.696 0v29.696c6.656 77.312 71.68 137.216 149.504 137.216 78.336-1.024 143.36-61.952 148.992-140.288v-327.68H152.576c-79.36 4.608-141.312 70.144-140.8 148.992z m864.256-214.528c77.312-6.656 137.216-71.168 137.216-148.992 0-77.824-59.392-142.336-137.216-148.992a143.915 143.915 0 0 0-29.696 0v-29.696c-5.12-78.848-70.144-140.288-149.504-139.776-78.848 0-144.384 61.44-148.992 139.776v327.68h328.192z" p-id="4148" fill="#ffffff"></path></svg>