<?xml version="1.0" standalone="no"?><!DOCTYPE svg PUBLIC "-//W3C//DTD SVG 1.1//EN" "http://www.w3.org/Graphics/SVG/1.1/DTD/svg11.dtd"><svg t="1681651080801" class="icon" viewBox="0 0 1024 1024" version="1.1" xmlns="http://www.w3.org/2000/svg" p-id="31035" xmlns:xlink="http://www.w3.org/1999/xlink" width="16" height="16"><path d="M831.536 56.896A32 32 0 0 1 876.576 75.2c12.8 38.56 19.424 71.392 19.424 99.008 0 21.776-3.6 41.6-10.96 59.376a572.368 572.368 0 0 1 42.528 101.152 275.696 275.696 0 0 1-103.872 308.8c-19.952 14.064-50.016 25.92-93.312 38.992-5.664 1.712-15.12 4.432-25.312 7.328A214.096 214.096 0 0 1 736 800.752V896a32 32 0 0 1-64 0v-95.248a150.096 150.096 0 0 0-43.968-106.128 32 32 0 0 1 13.568-53.328c3.904-1.136 54.128-15.104 70.208-19.968 36.8-11.2 62.4-21.2 74.928-30.032a211.696 211.696 0 0 0 79.76-237.152q-18.496-58.496-45.232-103.2a32 32 0 0 1 0.224-33.168c6.88-11.2 10.496-25.488 10.496-43.552 0-12.048-1.952-26.56-5.936-43.408Q808 139.2 787.312 148.176c-9.6 4.128-19.2 10.688-29.44 19.792-3.792 3.36-7.536 6.912-12.112 11.44l-11.2 11.2a93.392 93.392 0 0 1-12.8 10.784 44.368 44.368 0 0 1-11.36 5.632 35.872 35.872 0 0 1-21.984 0.224 435.856 435.856 0 0 0-253.184 0 36.368 36.368 0 0 1-21.376 0 49.184 49.184 0 0 1-11.104-4.8 110 110 0 0 1-14.816-10.672c-5.328-4.4-25.712-22.528-28.8-25.232A248.88 248.88 0 0 0 336 148.544q-2-1.344-3.872-2.496a308.96 308.96 0 0 0-33.216-17.728c-4.8 19.888-7.184 35.472-7.36 46.4-0.24 14.576 3.52 29.44 11.616 44.976a32 32 0 0 1-0.88 31.216q-26.688 44.72-45.312 103.184a211.696 211.696 0 0 0 79.76 237.152c12.528 8.832 38.08 18.912 74.928 30.032 16 4.8 66.304 18.816 70.208 19.968a32 32 0 0 1 13.632 53.344 150.096 150.096 0 0 0-43.968 106.128V896a32 32 0 1 1-64 0v-61.776l-15.6 2.576a141.52 141.52 0 0 1-137.472-56l-0.944-1.312a336.24 336.24 0 0 1-20.96-32.96 47.84 47.84 0 0 0-41.904-24.752 32 32 0 0 1 0-64 111.84 111.84 0 0 1 97.952 57.856 272.88 272.88 0 0 0 16.976 26.656 77.504 77.504 0 0 0 75.824 31.408l28.528-4.8a214.128 214.128 0 0 1 28.544-79.024c-10.192-2.896-19.632-5.616-25.312-7.328-43.296-13.072-73.36-24.928-93.312-38.992a275.696 275.696 0 0 1-103.872-308.8 571.632 571.632 0 0 1 42.88-101.792 151.168 151.168 0 0 1-11.312-59.2c0.4-23.584 6.816-55.68 19.072-97.376a32 32 0 0 1 41.056-21.328 386.48 386.48 0 0 1 78.032 36.496q2.976 1.84 6 3.856a307.744 307.744 0 0 1 29.072 22.608c3.936 3.392 23.616 20.896 27.856 24.384a501.712 501.712 0 0 1 264.16-0.544l7.904-7.888c5.36-5.312 9.92-9.6 14.768-13.92 14.96-13.232 29.888-23.44 46.4-30.608q40.56-17.44 69.664-32.544z" fill="#CED3DE" p-id="31036"></path></svg>