<?xml version="1.0" standalone="no"?><!DOCTYPE svg PUBLIC "-//W3C//DTD SVG 1.1//EN" "http://www.w3.org/Graphics/SVG/1.1/DTD/svg11.dtd"><svg t="1682182558890" class="icon" viewBox="0 0 1245 1024" version="1.1" xmlns="http://www.w3.org/2000/svg" p-id="12818" xmlns:xlink="http://www.w3.org/1999/xlink" width="38.90625" height="32"><path d="M134.384007 736.033129S575.932742 179.298245 959.887904 115.306718C511.940215 294.485393 0 1024 0 1024h499.14131s-6.398953-25.596811-38.394716-25.596811H63.992527s76.791432-89.589338 140.783959-147.182912c255.970108-12.798905 479.943452-38.395716 633.525317-255.970107 25.597811-51.194622-19.197858-44.794669-31.995764-44.794669 121.586101-51.194622 383.955162-243.172202 345.559446-339.160493-19.197858-19.197858-31.995763-6.399953-31.995764-6.399953s198.376533-127.984054 95.988291-185.578628-358.357351 31.996763-358.357351 31.996764 19.196858-38.394716-38.396716-38.394717C601.529553 32.115333 441.548736 179.298245 441.548736 179.298245s0-51.193622-31.996764-31.995764c-441.548736 275.167966-275.167966 588.730648-275.167965 588.730648z" fill="#1296db" p-id="12819"></path></svg>