<?xml version="1.0" standalone="no"?><!DOCTYPE svg PUBLIC "-//W3C//DTD SVG 1.1//EN" "http://www.w3.org/Graphics/SVG/1.1/DTD/svg11.dtd"><svg t="1682178759725" class="icon" viewBox="0 0 1024 1024" version="1.1" xmlns="http://www.w3.org/2000/svg" p-id="6038" xmlns:xlink="http://www.w3.org/1999/xlink" width="32" height="32"><path d="M91.381 933.875v-362.083c-1.539-52.097 5.973-101.018 22.532-146.762s39.771-85.992 69.815-120.761c29.947-34.665 65.771-63.46 107.664-86.382 41.797-22.823 87.151-37.461 136.072-43.718v156.196c-59.992 20.512-101.018 50.843-123.071 91.099-22.15 40.256-33.124 89.558-33.124 147.914h156.19v364.491h-336.077zM595.501 933.875v-362.083c-1.638-52.097 5.875-101.018 22.435-146.761 16.566-45.743 39.867-85.992 69.815-120.761 29.947-34.665 65.868-63.46 107.664-86.382 41.797-22.823 87.248-37.461 136.168-43.718v156.196c-59.993 20.512-101.018 50.843-123.071 91.099-22.15 40.256-33.124 89.558-33.124 147.914h156.196v364.491h-336.082z" p-id="6039" fill="#ffffff"></path></svg>