<?xml version="1.0" standalone="no"?><!DOCTYPE svg PUBLIC "-//W3C//DTD SVG 1.1//EN" "http://www.w3.org/Graphics/SVG/1.1/DTD/svg11.dtd"><svg t="1682006319924" class="icon" viewBox="0 0 1024 1024" version="1.1" xmlns="http://www.w3.org/2000/svg" p-id="8097" xmlns:xlink="http://www.w3.org/1999/xlink" width="32" height="32"><path d="M839.261091 676.817455c-56.32 0-106.030545 29.044364-134.935273 72.890181l-257.768727-182.830545a215.179636 215.179636 0 0 0-9.728-134.749091l280.669091-141.358545a161.047273 161.047273 0 0 0 121.762909 55.528727A161.652364 161.652364 0 0 0 1000.727273 184.785455 161.652364 161.652364 0 0 0 839.261091 23.365818a161.652364 161.652364 0 0 0-157.416727 197.352727L393.960727 365.847273a215.226182 215.226182 0 0 0-156.858182-67.630546 216.203636 216.203636 0 0 0-215.970909 215.970909c0 119.156364 96.814545 216.064 215.970909 216.064a216.203636 216.203636 0 0 0 175.941819-90.763636l265.216 188.043636a161.652364 161.652364 0 0 0 161.140363 172.357819 161.652364 161.652364 0 0 0 161.419637-161.466182 161.838545 161.838545 0 0 0-161.512728-161.512728z m0-574.88291c45.707636 0 82.944 37.236364 82.944 82.897455 0 45.707636-37.236364 82.897455-82.944 82.897455s-82.897455-37.189818-82.897455-82.85091c0-45.754182 37.236364-82.944 82.897455-82.944zM237.102545 651.636364a137.588364 137.588364 0 0 1-137.448727-137.448728 137.588364 137.588364 0 0 1 137.448727-137.448727 137.588364 137.588364 0 0 1 137.448728 137.448727A137.588364 137.588364 0 0 1 237.102545 651.636364z m602.158546 269.544727c-45.707636 0-82.897455-37.189818-82.897455-82.850909 0-45.754182 37.236364-82.944 82.897455-82.944 45.707636 0 82.944 37.236364 82.944 82.897454 0 45.707636-37.236364 82.897455-82.944 82.897455z" fill="#2c2c2c" opacity=".65" p-id="8098"></path></svg>