<?xml version="1.0" standalone="no"?><!DOCTYPE svg PUBLIC "-//W3C//DTD SVG 1.1//EN" "http://www.w3.org/Graphics/SVG/1.1/DTD/svg11.dtd"><svg t="1681920197297" class="icon" viewBox="0 0 1024 1024" version="1.1" xmlns="http://www.w3.org/2000/svg" p-id="20963" xmlns:xlink="http://www.w3.org/1999/xlink" width="32" height="32"><path d="M373.76 680.96c-30.72 20.48-71.68 35.84-117.76 35.84-112.64 0-204.8-92.16-204.8-204.8s92.16-204.8 204.8-204.8c46.08 0 87.04 15.36 117.76 35.84L665.6 158.72V153.6c0-87.04 66.56-153.6 153.6-153.6s153.6 66.56 153.6 153.6-66.56 153.6-153.6 153.6c-25.6 0-51.2-5.12-71.68-15.36L455.68 476.16c0 10.24 5.12 25.6 5.12 35.84s0 25.6-5.12 35.84l291.84 184.32c20.48-10.24 46.08-15.36 71.68-15.36 87.04 0 153.6 66.56 153.6 153.6s-66.56 153.6-153.6 153.6-153.6-66.56-153.6-153.6v-5.12l-291.84-184.32z" p-id="20964" fill="#ffffff"></path></svg>