<?xml version="1.0" standalone="no"?><!DOCTYPE svg PUBLIC "-//W3C//DTD SVG 1.1//EN" "http://www.w3.org/Graphics/SVG/1.1/DTD/svg11.dtd"><svg t="1682007166474" class="icon" viewBox="0 0 1024 1024" version="1.1" xmlns="http://www.w3.org/2000/svg" p-id="11350" xmlns:xlink="http://www.w3.org/1999/xlink" width="32" height="32"><path d="M787.259 630.152c-69.71 0-130.558 36.43-165.57 91.056L410.787 600.693c13.627-26.781 22.016-56.634 22.016-88.693 0-19.81-3.82-38.557-9.255-56.595l219.409-125.359c35.958 38.99 87.078 63.802 144.303 63.802 108.779 0 196.92-88.142 196.92-196.92C984.18 88.149 896.039 0.008 787.26 0.008c-108.779 0-196.92 88.141-196.92 196.92 0 19.81 3.82 38.557 9.255 56.634l-219.409 125.32c-35.958-38.951-87.078-63.802-144.303-63.802-108.779 0-196.92 88.142-196.92 196.92 0 108.779 88.142 196.92 196.92 196.92 44.898 0 85.818-15.596 118.94-40.881l237.683 137.765c-0.788 7.089-2.166 13.942-2.166 21.267 0 108.779 88.142 196.92 196.92 196.92 108.779 0 196.92-88.142 196.92-196.92-0.001-108.777-88.142-196.919-196.921-196.919" fill="#ffffff" p-id="11351"></path></svg>