<?xml version="1.0" standalone="no"?><!DOCTYPE svg PUBLIC "-//W3C//DTD SVG 1.1//EN" "http://www.w3.org/Graphics/SVG/1.1/DTD/svg11.dtd"><svg t="1681650828038" class="icon" viewBox="0 0 1024 1024" version="1.1" xmlns="http://www.w3.org/2000/svg" p-id="18816" xmlns:xlink="http://www.w3.org/1999/xlink" width="16" height="16"><path d="M904.9 794.5c36.2-45.8 55.5-100.1 55.5-155.6 0-72.4-31.4-139.9-88.1-190.6-16.9-14.5-33.8-27.7-53.1-37.4-9.7-82-50.7-156.8-118.2-213.5-71.2-59.1-162.8-91.7-258.1-91.7-100.1 0-195.4 35-266.6 98.9-35 31.4-62.7 67.5-82 108.6-37.4 78.4-39.8 168.9-8.4 248.5 12.1 31.4 30.2 60.3 51.9 85.6L99.2 775.2c-4.8 14.5 3.6 30.2 18.1 35 7.2 2.4 14.5 1.2 20.5-2.4l121.8-65.1c48.3 24.1 101.3 37.4 155.6 41 12.1 15.7 25.3 30.2 39.8 43.4 55.5 49.5 130.3 77.2 208.7 77.2 48.2 0 96.5-10.9 141.1-31.4l90.5 48.2c13.3 7.2 30.2 2.4 37.4-12.1 3.6-6 3.6-14.5 2.4-20.5l-30.2-94z m-523.5-68.8c-38.6-6-76-19.3-109.8-37.4-8.4-4.8-18.1-4.8-26.5 0l-74.8 39.8 24.1-78.4c2.4-9.6 0-19.3-6-26.5-45.8-50.7-70-112.2-70-176.1 0-156.8 144.7-284.7 323.3-284.7 153.2 0 283.4 95.3 316 223.1-31.4-9.6-62.7-13.3-95.3-13.3-78.4 0-153.2 27.7-208.7 77.2-56.7 50.7-88.1 118.2-88.1 190.6 0.1 27.8 6.1 58 15.8 85.7z m466.8 70l14.5 45.8-44.7-22.9c-8.4-4.8-18.1-4.8-26.5 0-38.6 20.5-82 31.4-127.9 31.4-133.9 0-242.4-95.3-242.4-212.3s108.6-212.3 242.4-212.3S906 520.7 906 637.7c0 48.3-18.1 94.1-51.9 131.5-7.1 7.2-9.5 18-5.9 26.5z m0 0" fill="#BFBFBF" p-id="18817"></path><path d="M748.1 536.4c-21.7 0-38.6 16.9-38.6 38.6 0 21.7 16.9 38.6 38.6 38.6 21.7 0 38.6-16.9 38.6-38.6 0-20.5-16.9-37.4-38.6-38.6z m-168.9 0c-21.7 0-38.6 16.9-38.6 38.6 0 21.7 16.9 38.6 38.6 38.6 21.7 0 38.6-16.9 38.6-38.6 0-20.5-16.9-37.4-38.6-38.6z m-41-176.1c21.7 0 38.6-16.9 38.6-38.6s-16.9-38.6-38.6-38.6c-21.7 0-38.6 16.9-38.6 38.6-1.2 21.7 16.9 38.6 38.6 38.6z m-191.8-77.2c-21.7 0-38.6 16.9-38.6 38.6s16.9 38.6 38.6 38.6c21.7 0 38.6-16.9 38.6-38.6 1.2-21.7-16.9-38.6-38.6-38.6z m0 0" fill="#BFBFBF" p-id="18818"></path></svg>